<svg width="17.000000" height="18.000000" viewBox="0 0 17 18" fill="none" xmlns="http://www.w3.org/2000/svg" xmlns:xlink="http://www.w3.org/1999/xlink">
	<desc>
			Created with Pixso.
	</desc>
	<defs/>
	<path id="cart_2" d="M13.44 11.87C13.95 11.87 14.45 11.69 14.84 11.37C15.24 11.04 15.51 10.59 15.61 10.08L16.73 4.51C16.79 4.18 16.78 3.85 16.7 3.53C16.62 3.21 16.47 2.91 16.27 2.66C16.06 2.4 15.79 2.2 15.5 2.06C15.2 1.92 14.87 1.84 14.55 1.84L3.45 1.84L3.45 0.73C3.44 0.43 3.33 0.15 3.12 -0.06C2.91 -0.27 2.63 -0.39 2.33 -0.39L0.12 -0.39C-0.17 -0.38 -0.45 -0.26 -0.65 -0.05C-0.85 0.16 -0.96 0.44 -0.96 0.73C-0.96 1.02 -0.85 1.3 -0.65 1.5C-0.45 1.71 -0.17 1.83 0.12 1.84L1.23 1.84L1.23 12.99C0.79 12.99 0.36 13.11 -0.01 13.36C-0.37 13.6 -0.66 13.95 -0.83 14.36C-1 14.76 -1.05 15.21 -0.96 15.64C-0.88 16.08 -0.67 16.48 -0.36 16.79C-0.04 17.1 0.35 17.31 0.79 17.4C1.22 17.49 1.67 17.44 2.07 17.28C2.48 17.11 2.83 16.82 3.08 16.46C3.32 16.09 3.45 15.66 3.45 15.22L11.22 15.22C11.22 15.65 11.35 16.08 11.6 16.45C11.84 16.81 12.19 17.09 12.6 17.26C13 17.43 13.45 17.47 13.88 17.38C14.31 17.3 14.7 17.08 15.01 16.77C15.32 16.46 15.53 16.07 15.62 15.64C15.7 15.21 15.66 14.76 15.49 14.36C15.32 13.95 15.04 13.6 14.67 13.36C14.31 13.12 13.88 12.99 13.44 12.99L3.45 12.99L3.45 11.87L13.44 11.87ZM14.55 4.07L13.44 9.65L3.45 9.65L3.45 4.07L14.55 4.07L14.55 4.07Z" fill="#33A0FF" fill-opacity="1.000000" fill-rule="evenodd"/>
</svg>
