<svg width="18.000000" height="16.000000" viewBox="0 0 18 16" fill="none" xmlns="http://www.w3.org/2000/svg" xmlns:xlink="http://www.w3.org/1999/xlink">
	<desc>
			Created with Pixso.
	</desc>
	<defs/>
	<path id="hearts" d="M11.82 1.96C12.46 1.96 13.09 2.14 13.63 2.49C14.17 2.84 14.6 3.34 14.86 3.93C15.13 4.52 15.22 5.17 15.12 5.8C15.02 6.44 14.74 7.03 14.32 7.52C13.7 8.21 8.48 13.1 8.48 13.1C8.48 13.1 3.24 8.21 2.63 7.51C2.08 6.9 1.79 6.11 1.79 5.3C1.81 4.42 2.16 3.59 2.79 2.97C3.41 2.36 4.26 2.01 5.13 2.01C6.01 2.01 6.85 2.36 7.48 2.97C8.1 3.59 8.46 4.42 8.48 5.3C8.48 4.86 8.56 4.42 8.73 4.02C8.9 3.61 9.15 3.24 9.46 2.93C9.77 2.62 10.14 2.38 10.54 2.21C10.95 2.04 11.38 1.95 11.82 1.95L11.82 1.96ZM11.82 -0.27C10.61 -0.28 9.44 0.12 8.48 0.84C7.37 0.02 6.01 -0.36 4.64 -0.23C3.27 -0.1 1.99 0.52 1.06 1.53C0.13 2.54 -0.4 3.86 -0.42 5.24C-0.44 6.61 0.05 7.95 0.96 8.98C1.58 9.7 5.71 13.56 6.96 14.73C7.37 15.11 7.92 15.33 8.48 15.33C9.05 15.33 9.59 15.11 10 14.73C11.25 13.56 15.35 9.71 15.99 8.99C16.7 8.19 17.16 7.2 17.32 6.14C17.49 5.08 17.34 3.99 16.9 3.01C16.46 2.03 15.74 1.2 14.84 0.62C13.94 0.04 12.89 -0.27 11.82 -0.27L11.82 -0.27Z" fill="#33A0FF" fill-opacity="1.000000" fill-rule="evenodd"/>
</svg>
